<?xml version="1.0" standalone="no"?>
<!DOCTYPE svg PUBLIC "-//W3C//DTD SVG 20010904//EN"
 "http://www.w3.org/TR/2001/REC-SVG-20010904/DTD/svg10.dtd">
<svg version="1.0" xmlns="http://www.w3.org/2000/svg"
 width="600.000000pt" height="600.000000pt" viewBox="0 0 600.000000 600.000000"
 preserveAspectRatio="xMidYMid meet">

<g transform="translate(0.000000,600.000000) scale(0.100000,-0.100000)"
fill="#000000" stroke="none">
<path d="M0 3000 l0 -3000 3000 0 3000 0 0 3000 0 3000 -3000 0 -3000 0 0
-3000z m333 2699 c22 -2 22 -2 0 -6 -15 -3 -23 -12 -24 -26 -2 -22 -2 -22 -6
1 -3 14 -12 22 -26 23 -22 2 -22 2 1 6 14 3 22 12 23 26 2 22 2 22 6 0 3 -15
12 -23 26 -24z m1800 0 c22 -2 22 -2 0 -6 -13 -2 -23 -12 -24 -21 0 -14 -2
-14 -6 -2 -3 8 -11 18 -17 22 -8 5 -7 8 2 8 6 0 13 10 13 23 l2 22 4 -22 c3
-15 12 -23 26 -24z m1778 -29 c-5 -24 -6 -24 -9 -2 -2 14 -11 22 -25 23 -22 2
-22 2 1 6 14 3 22 12 23 26 1 20 2 20 8 -3 4 -14 5 -36 2 -50z m1822 29 c22
-2 22 -2 0 -6 -15 -3 -23 -12 -24 -26 -2 -22 -2 -22 -6 1 -3 14 -12 22 -26 23
-22 2 -22 2 1 6 14 3 22 12 23 26 2 22 2 22 6 0 3 -15 12 -23 26 -24z m-3600
-1800 c22 -2 22 -2 0 -6 -15 -3 -23 -12 -24 -26 -2 -22 -2 -22 -6 1 -3 14 -12
22 -26 23 -22 2 -22 2 1 6 14 3 22 12 23 26 2 22 2 22 6 0 3 -15 12 -23 26
-24z m1800 0 c22 -2 22 -2 0 -6 -13 -2 -24 -12 -24 -21 -1 -15 -2 -15 -6 1 -2
9 -14 18 -26 18 -22 2 -22 2 1 6 14 3 22 12 23 26 2 22 2 22 6 0 3 -15 12 -23
26 -24z m1800 0 c22 -2 22 -2 0 -6 -15 -3 -23 -12 -24 -26 -2 -22 -2 -22 -6 1
-3 14 -12 22 -26 23 -22 2 -22 2 1 6 14 3 22 12 23 26 2 22 2 22 6 0 3 -15 12
-23 26 -24z m-5403 -2 c12 -4 11 -6 -2 -6 -11 -1 -19 -10 -19 -23 l-2 -23 -4
23 c-3 14 -12 22 -26 23 -22 2 -22 2 1 6 12 2 22 10 22 16 0 9 2 9 8 1 4 -6
14 -14 22 -17z m3 -1798 c22 -2 22 -2 0 -6 -15 -3 -23 -12 -24 -26 -2 -22 -2
-22 -6 1 -3 14 -12 22 -26 23 -22 2 -22 2 1 6 14 3 22 12 23 26 2 22 2 22 6 0
3 -15 12 -23 26 -24z m1795 0 c15 -1 15 -2 0 -6 -10 -2 -19 -14 -19 -26 -2
-22 -2 -22 -6 1 -3 14 -12 22 -26 23 -22 2 -22 2 1 6 14 3 22 12 23 26 2 22 2
22 6 0 2 -13 12 -24 21 -24z m1805 0 c22 -2 22 -2 0 -6 -15 -3 -23 -12 -24
-26 -2 -22 -2 -22 -6 1 -3 14 -12 22 -26 23 -22 2 -22 2 1 6 14 3 22 12 23 26
2 22 2 22 6 0 3 -15 12 -23 26 -24z m1800 0 c21 -1 21 -2 2 -6 -11 -3 -23 -10
-27 -17 -6 -8 -8 -7 -8 2 0 6 -10 13 -22 13 l-23 2 23 4 c14 3 22 12 23 26 2
22 2 22 6 0 3 -15 12 -23 26 -24z m-5400 -1800 c21 -1 21 -2 2 -6 -11 -3 -23
-10 -27 -17 -6 -8 -8 -7 -8 2 0 6 -10 13 -22 13 l-23 2 23 4 c14 3 22 12 23
26 2 22 2 22 6 0 3 -15 12 -23 26 -24z m1800 0 c22 -2 22 -2 0 -6 -15 -3 -23
-12 -24 -26 -2 -22 -2 -22 -6 1 -3 14 -12 22 -26 23 -22 2 -22 2 1 6 14 3 22
12 23 26 2 22 2 22 6 0 3 -15 12 -23 26 -24z m1800 0 c22 -2 22 -2 0 -6 -15
-3 -23 -12 -24 -26 -2 -22 -2 -22 -6 1 -3 14 -12 22 -26 23 -22 2 -22 2 1 6
14 3 22 12 23 26 2 22 2 22 6 0 3 -15 12 -23 26 -24z m1800 0 c22 -2 22 -2 0
-6 -15 -3 -23 -12 -24 -26 -2 -22 -2 -22 -6 1 -3 14 -12 22 -26 23 -22 2 -22
2 1 6 14 3 22 12 23 26 2 22 2 22 6 0 3 -15 12 -23 26 -24z"/>
</g>
</svg>
