# Blender v3.4.0 OBJ File: ''
# www.blender.org
mtllib Plane.mtl
o Plane
v 0.202363 0.249018 0.765375
v 0.003472 -0.154530 -1.379232
v -0.237078 0.214540 0.745455
v -0.019536 -0.154238 -1.379612
v -0.008938 -0.192089 0.563738
v -0.008938 -0.178235 -1.436262
v -0.735677 0.051286 0.764299
v 0.738153 0.046984 0.777290
v 0.202346 0.245174 0.765918
v 0.003455 -0.158373 -1.378689
v -0.237095 0.210696 0.745997
v -0.019553 -0.158082 -1.379070
v -0.008955 -0.201767 0.564281
v -0.008955 -0.182078 -1.435719
v -0.735694 0.047443 0.764841
v 0.738135 0.043140 0.777833
vt 0.201113 0.992196
vt 0.944988 0.992468
vt 0.918959 0.983764
vt 0.153492 0.842898
vt 0.129259 0.809963
vt 0.279440 0.021644
vt 0.291678 0.002819
vt 0.291831 0.749182
vt 0.354596 0.714056
vt 0.005875 0.573988
vt 0.599962 0.182135
vt 0.720249 0.052559
vt 0.888797 0.759185
vt 0.890851 0.798979
vt 0.426663 0.745718
vt 0.294637 0.605769
vt 0.598743 0.000619
vt 0.584812 0.046743
vt 0.888929 -0.002337
vt 0.600269 0.003685
vt 0.600906 0.800455
vt 0.585289 0.035654
vt 0.599528 0.036523
vt 0.602306 0.001316
vt 0.600133 0.000977
vt 0.421476 0.748641
vt 0.414642 0.744496
vt 0.293782 0.612565
vt 0.288086 0.612741
vt 0.891446 0.758835
vt 0.893458 0.139738
vt 0.720877 0.048171
vt 0.600612 0.178123
vt 0.892969 0.798332
vt 0.599641 0.792496
vt 0.602306 0.788802
vn 0.8757 0.4829 0.0046
vn -0.9016 0.4325 0.0026
vn -0.3119 0.9302 -0.1934
vn 0.3494 0.9144 -0.2045
vn -0.8787 -0.4774 -0.0059
vn 0.9040 -0.4276 -0.0038
vn 0.3119 -0.9302 0.1934
vn -0.3494 -0.9144 0.2045
vn 0.9793 -0.0325 -0.1996
vn 0.0306 0.1396 0.9897
vn -0.9489 -0.0400 -0.3131
vn 0.6824 0.0568 0.7288
vn -0.9843 -0.0204 -0.1755
vn -0.7474 0.0550 0.6621
vn 0.9468 -0.0491 -0.3180
vn -0.0083 0.1398 0.9901
g Plane_Plane_Material.001
usemtl Material.001
s 1
f 5/1/1 6/2/1 4/3/1 3/4/1
f 1/5/2 2/6/2 6/7/2 5/8/2
f 3/4/3 4/3/3 7/9/3
f 2/6/4 1/5/4 8/10/4
f 13/11/5 11/12/5 12/13/5 14/14/5
f 9/15/6 13/16/6 14/17/6 10/18/6
f 11/12/7 15/19/7 12/13/7
f 10/20/8 16/21/8 9/15/8
f 2/22/9 10/23/9 14/24/9 6/25/9
f 1/26/10 9/27/10 16/28/10 8/29/10
f 4/30/11 12/13/11 15/19/11 7/31/11
f 3/32/12 11/12/12 13/11/12 5/33/12
f 6/34/13 14/14/13 12/13/13 4/30/13
f 5/35/14 13/36/14 9/27/14 1/26/14
f 8/29/15 16/28/15 10/23/15 2/22/15
f 7/31/16 15/19/16 11/12/16 3/32/16
